<mxfile host="app.diagrams.net" modified="2024-01-25T08:41:42.900Z" agent="Mozilla/5.0 (Windows NT 10.0; Win64; x64; rv:121.0) Gecko/20100101 Firefox/121.0" etag="9Skn-8b-SrzQwrKG2Ohb" version="23.0.1" type="device">
  <diagram name="Page-1" id="MhpDu6ej5fcILZQjBw5Y">
    <mxGraphModel dx="1195" dy="645" grid="1" gridSize="10" guides="1" tooltips="1" connect="1" arrows="1" fold="1" page="1" pageScale="1" pageWidth="850" pageHeight="1100" math="0" shadow="0">
      <root>
        <mxCell id="0" />
        <mxCell id="1" parent="0" />
        <mxCell id="KCjI0iNDDCobueO4zZmC-9" style="edgeStyle=orthogonalEdgeStyle;rounded=0;orthogonalLoop=1;jettySize=auto;html=1;entryX=0.5;entryY=1;entryDx=0;entryDy=0;fontFamily=Poppins;fontSource=https%3A%2F%2Ffonts.googleapis.com%2Fcss%3Ffamily%3DPoppins;" edge="1" parent="1" source="KCjI0iNDDCobueO4zZmC-1" target="KCjI0iNDDCobueO4zZmC-5">
          <mxGeometry relative="1" as="geometry">
            <Array as="points">
              <mxPoint x="760" y="280" />
            </Array>
          </mxGeometry>
        </mxCell>
        <mxCell id="KCjI0iNDDCobueO4zZmC-1" value="" style="rounded=1;whiteSpace=wrap;html=1;fontFamily=Poppins;fontSource=https%3A%2F%2Ffonts.googleapis.com%2Fcss%3Ffamily%3DPoppins;" vertex="1" parent="1">
          <mxGeometry x="370" y="230" width="150" height="130" as="geometry" />
        </mxCell>
        <mxCell id="KCjI0iNDDCobueO4zZmC-7" style="edgeStyle=orthogonalEdgeStyle;rounded=0;orthogonalLoop=1;jettySize=auto;html=1;fontFamily=Poppins;fontSource=https%3A%2F%2Ffonts.googleapis.com%2Fcss%3Ffamily%3DPoppins;exitX=1;exitY=0.645;exitDx=0;exitDy=0;entryX=0.209;entryY=0.004;entryDx=0;entryDy=0;entryPerimeter=0;exitPerimeter=0;" edge="1" parent="1" source="KCjI0iNDDCobueO4zZmC-2">
          <mxGeometry relative="1" as="geometry">
            <mxPoint x="229" y="139" as="sourcePoint" />
            <mxPoint x="430.3499999999999" y="230.51999999999998" as="targetPoint" />
          </mxGeometry>
        </mxCell>
        <mxCell id="KCjI0iNDDCobueO4zZmC-2" value="Pasien" style="rounded=0;whiteSpace=wrap;html=1;fontFamily=Poppins;fontSource=https%3A%2F%2Ffonts.googleapis.com%2Fcss%3Ffamily%3DPoppins;" vertex="1" parent="1">
          <mxGeometry x="80" y="100" width="120" height="60" as="geometry" />
        </mxCell>
        <mxCell id="KCjI0iNDDCobueO4zZmC-14" style="edgeStyle=orthogonalEdgeStyle;rounded=0;orthogonalLoop=1;jettySize=auto;html=1;entryX=0.75;entryY=1;entryDx=0;entryDy=0;fontFamily=Poppins;fontSource=https%3A%2F%2Ffonts.googleapis.com%2Fcss%3Ffamily%3DPoppins;" edge="1" parent="1" source="KCjI0iNDDCobueO4zZmC-3" target="KCjI0iNDDCobueO4zZmC-1">
          <mxGeometry relative="1" as="geometry" />
        </mxCell>
        <mxCell id="KCjI0iNDDCobueO4zZmC-3" value="Petugas Loket Pendaftaran" style="rounded=0;whiteSpace=wrap;html=1;fontFamily=Poppins;fontSource=https%3A%2F%2Ffonts.googleapis.com%2Fcss%3Ffamily%3DPoppins;" vertex="1" parent="1">
          <mxGeometry x="700" y="440" width="120" height="60" as="geometry" />
        </mxCell>
        <mxCell id="KCjI0iNDDCobueO4zZmC-13" style="edgeStyle=orthogonalEdgeStyle;rounded=0;orthogonalLoop=1;jettySize=auto;html=1;entryX=0.25;entryY=1;entryDx=0;entryDy=0;fontFamily=Poppins;fontSource=https%3A%2F%2Ffonts.googleapis.com%2Fcss%3Ffamily%3DPoppins;" edge="1" parent="1" source="KCjI0iNDDCobueO4zZmC-4" target="KCjI0iNDDCobueO4zZmC-1">
          <mxGeometry relative="1" as="geometry" />
        </mxCell>
        <mxCell id="KCjI0iNDDCobueO4zZmC-4" value="Mesin APM" style="rounded=0;whiteSpace=wrap;html=1;fontFamily=Poppins;fontSource=https%3A%2F%2Ffonts.googleapis.com%2Fcss%3Ffamily%3DPoppins;" vertex="1" parent="1">
          <mxGeometry x="80" y="440" width="120" height="60" as="geometry" />
        </mxCell>
        <mxCell id="KCjI0iNDDCobueO4zZmC-5" value="Dokter" style="rounded=0;whiteSpace=wrap;html=1;fontFamily=Poppins;fontSource=https%3A%2F%2Ffonts.googleapis.com%2Fcss%3Ffamily%3DPoppins;" vertex="1" parent="1">
          <mxGeometry x="700" y="100" width="120" height="60" as="geometry" />
        </mxCell>
        <mxCell id="KCjI0iNDDCobueO4zZmC-10" style="edgeStyle=orthogonalEdgeStyle;rounded=0;orthogonalLoop=1;jettySize=auto;html=1;entryX=0.5;entryY=0;entryDx=0;entryDy=0;fontFamily=Poppins;fontSource=https%3A%2F%2Ffonts.googleapis.com%2Fcss%3Ffamily%3DPoppins;" edge="1" parent="1" target="KCjI0iNDDCobueO4zZmC-3">
          <mxGeometry relative="1" as="geometry">
            <mxPoint x="520" y="320" as="sourcePoint" />
            <mxPoint x="750" y="200" as="targetPoint" />
            <Array as="points">
              <mxPoint x="760" y="320" />
            </Array>
          </mxGeometry>
        </mxCell>
        <mxCell id="KCjI0iNDDCobueO4zZmC-21" value="Sistem Pendaftaran Pasien" style="rounded=0;whiteSpace=wrap;html=1;fontFamily=Poppins;fontSource=https%3A%2F%2Ffonts.googleapis.com%2Fcss%3Ffamily%3DPoppins;" vertex="1" parent="1">
          <mxGeometry x="370" y="260" width="150" height="70" as="geometry" />
        </mxCell>
        <mxCell id="KCjI0iNDDCobueO4zZmC-22" value="0" style="text;html=1;strokeColor=none;fillColor=none;align=center;verticalAlign=middle;whiteSpace=wrap;rounded=0;fontFamily=Poppins;fontSource=https%3A%2F%2Ffonts.googleapis.com%2Fcss%3Ffamily%3DPoppins;" vertex="1" parent="1">
          <mxGeometry x="415" y="230" width="60" height="30" as="geometry" />
        </mxCell>
        <mxCell id="KCjI0iNDDCobueO4zZmC-29" style="edgeStyle=orthogonalEdgeStyle;rounded=0;orthogonalLoop=1;jettySize=auto;html=1;fontFamily=Poppins;fontSource=https%3A%2F%2Ffonts.googleapis.com%2Fcss%3Ffamily%3DPoppins;entryX=0.294;entryY=-0.002;entryDx=0;entryDy=0;entryPerimeter=0;exitX=1;exitY=0.399;exitDx=0;exitDy=0;exitPerimeter=0;" edge="1" parent="1" source="KCjI0iNDDCobueO4zZmC-2">
          <mxGeometry relative="1" as="geometry">
            <mxPoint x="229" y="125" as="sourcePoint" />
            <mxPoint x="443.0999999999999" y="229.74" as="targetPoint" />
            <Array as="points">
              <mxPoint x="200" y="125" />
              <mxPoint x="443" y="125" />
            </Array>
          </mxGeometry>
        </mxCell>
        <mxCell id="KCjI0iNDDCobueO4zZmC-30" style="edgeStyle=orthogonalEdgeStyle;rounded=0;orthogonalLoop=1;jettySize=auto;html=1;fontFamily=Poppins;fontSource=https%3A%2F%2Ffonts.googleapis.com%2Fcss%3Ffamily%3DPoppins;entryX=0.25;entryY=0;entryDx=0;entryDy=0;exitX=1;exitY=0.18;exitDx=0;exitDy=0;exitPerimeter=0;" edge="1" parent="1" source="KCjI0iNDDCobueO4zZmC-2">
          <mxGeometry relative="1" as="geometry">
            <mxPoint x="228.27999999999997" y="109.41999999999996" as="sourcePoint" />
            <mxPoint x="459.0000000000002" y="230" as="targetPoint" />
            <Array as="points">
              <mxPoint x="200" y="109" />
              <mxPoint x="459" y="109" />
            </Array>
          </mxGeometry>
        </mxCell>
        <mxCell id="KCjI0iNDDCobueO4zZmC-31" style="edgeStyle=orthogonalEdgeStyle;rounded=0;orthogonalLoop=1;jettySize=auto;html=1;fontFamily=Poppins;fontSource=https%3A%2F%2Ffonts.googleapis.com%2Fcss%3Ffamily%3DPoppins;exitX=1.001;exitY=0.885;exitDx=0;exitDy=0;entryX=0.102;entryY=0.004;entryDx=0;entryDy=0;entryPerimeter=0;exitPerimeter=0;" edge="1" parent="1" source="KCjI0iNDDCobueO4zZmC-2">
          <mxGeometry relative="1" as="geometry">
            <mxPoint x="229" y="153.26000000000005" as="sourcePoint" />
            <mxPoint x="414.29999999999995" y="230.51999999999998" as="targetPoint" />
          </mxGeometry>
        </mxCell>
        <mxCell id="KCjI0iNDDCobueO4zZmC-32" value="&lt;font style=&quot;font-size: 8px;&quot;&gt;&amp;nbsp;pilihan dokter&amp;nbsp; &lt;/font&gt;" style="text;html=1;align=center;verticalAlign=middle;whiteSpace=wrap;rounded=0;fontFamily=Poppins;fontSource=https%3A%2F%2Ffonts.googleapis.com%2Fcss%3Ffamily%3DPoppins;fontSize=8;labelBackgroundColor=default;spacing=10;" vertex="1" parent="1">
          <mxGeometry x="259" y="136" width="131" height="34" as="geometry" />
        </mxCell>
        <mxCell id="KCjI0iNDDCobueO4zZmC-34" value="&lt;font style=&quot;font-size: 8px;&quot;&gt;&amp;nbsp;pilihan jadwal waktu kontrol&amp;nbsp; &lt;/font&gt;" style="text;html=1;align=center;verticalAlign=middle;whiteSpace=wrap;rounded=0;fontFamily=Poppins;fontSource=https%3A%2F%2Ffonts.googleapis.com%2Fcss%3Ffamily%3DPoppins;fontSize=8;labelBackgroundColor=default;spacing=10;" vertex="1" parent="1">
          <mxGeometry x="261" y="122" width="148" height="34" as="geometry" />
        </mxCell>
        <mxCell id="KCjI0iNDDCobueO4zZmC-37" value="&lt;font style=&quot;font-size: 8px;&quot;&gt;&amp;nbsp;data lengkap pasien&amp;nbsp; &lt;/font&gt;" style="text;html=1;align=center;verticalAlign=middle;whiteSpace=wrap;rounded=0;fontFamily=Poppins;fontSource=https%3A%2F%2Ffonts.googleapis.com%2Fcss%3Ffamily%3DPoppins;fontSize=8;labelBackgroundColor=default;spacing=10;" vertex="1" parent="1">
          <mxGeometry x="258" y="107" width="131" height="34" as="geometry" />
        </mxCell>
        <mxCell id="KCjI0iNDDCobueO4zZmC-38" value="&lt;font style=&quot;font-size: 8px;&quot;&gt;&amp;nbsp;No Whatsapp &lt;/font&gt;&amp;amp; email&amp;nbsp; " style="text;html=1;align=center;verticalAlign=middle;whiteSpace=wrap;rounded=0;fontFamily=Poppins;fontSource=https%3A%2F%2Ffonts.googleapis.com%2Fcss%3Ffamily%3DPoppins;fontSize=8;labelBackgroundColor=default;spacing=10;" vertex="1" parent="1">
          <mxGeometry x="256" y="92" width="131" height="34" as="geometry" />
        </mxCell>
        <mxCell id="KCjI0iNDDCobueO4zZmC-39" style="edgeStyle=orthogonalEdgeStyle;rounded=0;orthogonalLoop=1;jettySize=auto;html=1;fontFamily=Poppins;fontSource=https%3A%2F%2Ffonts.googleapis.com%2Fcss%3Ffamily%3DPoppins;entryX=0.566;entryY=0.01;entryDx=0;entryDy=0;exitX=0.833;exitY=-0.015;exitDx=0;exitDy=0;entryPerimeter=0;exitPerimeter=0;" edge="1" parent="1" source="KCjI0iNDDCobueO4zZmC-2">
          <mxGeometry relative="1" as="geometry">
            <mxPoint x="205.87" y="100.1" as="sourcePoint" />
            <mxPoint x="475.96000000000004" y="230.30000000000007" as="targetPoint" />
            <Array as="points">
              <mxPoint x="180" y="90" />
              <mxPoint x="476" y="90" />
            </Array>
          </mxGeometry>
        </mxCell>
        <mxCell id="KCjI0iNDDCobueO4zZmC-40" value="&amp;nbsp;No Rekam Medis&amp;nbsp; " style="text;html=1;align=center;verticalAlign=middle;whiteSpace=wrap;rounded=0;fontFamily=Poppins;fontSource=https%3A%2F%2Ffonts.googleapis.com%2Fcss%3Ffamily%3DPoppins;fontSize=8;labelBackgroundColor=default;spacing=10;" vertex="1" parent="1">
          <mxGeometry x="249" y="72" width="131" height="34" as="geometry" />
        </mxCell>
        <mxCell id="KCjI0iNDDCobueO4zZmC-48" value="" style="edgeStyle=orthogonalEdgeStyle;rounded=0;orthogonalLoop=1;jettySize=auto;html=1;fontFamily=Poppins;fontSource=https%3A%2F%2Ffonts.googleapis.com%2Fcss%3Ffamily%3DPoppins;exitX=0.413;exitY=1.006;exitDx=0;exitDy=0;exitPerimeter=0;startArrow=classic;startFill=1;endArrow=none;endFill=0;entryX=0.003;entryY=0.395;entryDx=0;entryDy=0;entryPerimeter=0;" edge="1" parent="1" source="KCjI0iNDDCobueO4zZmC-2">
          <mxGeometry relative="1" as="geometry">
            <mxPoint x="130.27999999999997" y="178.12" as="sourcePoint" />
            <mxPoint x="370.45000000000005" y="305.65" as="targetPoint" />
            <Array as="points">
              <mxPoint x="130" y="306" />
            </Array>
          </mxGeometry>
        </mxCell>
        <mxCell id="KCjI0iNDDCobueO4zZmC-50" value="&amp;nbsp;nomor pendaftaran&amp;nbsp; " style="text;html=1;align=center;verticalAlign=middle;whiteSpace=wrap;rounded=0;fontFamily=Poppins;fontSource=https%3A%2F%2Ffonts.googleapis.com%2Fcss%3Ffamily%3DPoppins;fontSize=8;labelBackgroundColor=default;spacing=10;" vertex="1" parent="1">
          <mxGeometry x="185.5" y="288" width="131" height="34" as="geometry" />
        </mxCell>
        <mxCell id="KCjI0iNDDCobueO4zZmC-53" value="" style="edgeStyle=orthogonalEdgeStyle;rounded=0;orthogonalLoop=1;jettySize=auto;html=1;fontFamily=Poppins;fontSource=https%3A%2F%2Ffonts.googleapis.com%2Fcss%3Ffamily%3DPoppins;exitX=0.25;exitY=1;exitDx=0;exitDy=0;startArrow=classic;startFill=1;endArrow=none;endFill=0;entryX=0.002;entryY=0.632;entryDx=0;entryDy=0;entryPerimeter=0;" edge="1" parent="1" source="KCjI0iNDDCobueO4zZmC-2">
          <mxGeometry relative="1" as="geometry">
            <mxPoint x="110" y="178" as="sourcePoint" />
            <mxPoint x="370.29999999999995" y="322.24" as="targetPoint" />
            <Array as="points">
              <mxPoint x="110" y="322" />
            </Array>
          </mxGeometry>
        </mxCell>
        <mxCell id="KCjI0iNDDCobueO4zZmC-54" value="&amp;nbsp;detail pendaftaran&amp;nbsp; " style="text;html=1;align=center;verticalAlign=middle;whiteSpace=wrap;rounded=0;fontFamily=Poppins;fontSource=https%3A%2F%2Ffonts.googleapis.com%2Fcss%3Ffamily%3DPoppins;fontSize=8;labelBackgroundColor=default;spacing=10;" vertex="1" parent="1">
          <mxGeometry x="166.5" y="304" width="119" height="34" as="geometry" />
        </mxCell>
        <mxCell id="KCjI0iNDDCobueO4zZmC-57" value="&amp;nbsp;data registrasi ulang pasien&amp;nbsp; " style="text;html=1;align=center;verticalAlign=middle;whiteSpace=wrap;rounded=0;fontFamily=Poppins;fontSource=https%3A%2F%2Ffonts.googleapis.com%2Fcss%3Ffamily%3DPoppins;fontSize=8;labelBackgroundColor=default;spacing=10;" vertex="1" parent="1">
          <mxGeometry x="234" y="453" width="146" height="34" as="geometry" />
        </mxCell>
        <mxCell id="KCjI0iNDDCobueO4zZmC-60" value="" style="edgeStyle=orthogonalEdgeStyle;rounded=0;orthogonalLoop=1;jettySize=auto;html=1;fontFamily=Poppins;fontSource=https%3A%2F%2Ffonts.googleapis.com%2Fcss%3Ffamily%3DPoppins;exitX=0.556;exitY=1.004;exitDx=0;exitDy=0;startArrow=classic;startFill=1;endArrow=none;endFill=0;entryX=-0.002;entryY=0.44;entryDx=0;entryDy=0;entryPerimeter=0;exitPerimeter=0;" edge="1" parent="1" source="KCjI0iNDDCobueO4zZmC-2" target="KCjI0iNDDCobueO4zZmC-21">
          <mxGeometry relative="1" as="geometry">
            <mxPoint x="147" y="159" as="sourcePoint" />
            <mxPoint x="377.00000000000006" y="290.65" as="targetPoint" />
            <Array as="points">
              <mxPoint x="147" y="291" />
            </Array>
          </mxGeometry>
        </mxCell>
        <mxCell id="KCjI0iNDDCobueO4zZmC-61" value="&amp;nbsp;informasi dokter&amp;nbsp; " style="text;html=1;align=center;verticalAlign=middle;whiteSpace=wrap;rounded=0;fontFamily=Poppins;fontSource=https%3A%2F%2Ffonts.googleapis.com%2Fcss%3Ffamily%3DPoppins;fontSize=8;labelBackgroundColor=default;spacing=10;" vertex="1" parent="1">
          <mxGeometry x="174.5" y="273" width="131" height="34" as="geometry" />
        </mxCell>
        <mxCell id="KCjI0iNDDCobueO4zZmC-63" value="&amp;nbsp;informasi pasien&amp;nbsp; " style="text;html=1;align=center;verticalAlign=middle;whiteSpace=wrap;rounded=0;fontFamily=Poppins;fontSource=https%3A%2F%2Ffonts.googleapis.com%2Fcss%3Ffamily%3DPoppins;fontSize=8;labelBackgroundColor=default;spacing=10;" vertex="1" parent="1">
          <mxGeometry x="570" y="303" width="119" height="34" as="geometry" />
        </mxCell>
        <mxCell id="KCjI0iNDDCobueO4zZmC-65" value="&amp;nbsp;data registrasi ulang pasien&amp;nbsp; " style="text;html=1;align=center;verticalAlign=middle;whiteSpace=wrap;rounded=0;fontFamily=Poppins;fontSource=https%3A%2F%2Ffonts.googleapis.com%2Fcss%3Ffamily%3DPoppins;fontSize=8;labelBackgroundColor=default;spacing=10;" vertex="1" parent="1">
          <mxGeometry x="510" y="453" width="146" height="34" as="geometry" />
        </mxCell>
        <mxCell id="KCjI0iNDDCobueO4zZmC-66" style="edgeStyle=orthogonalEdgeStyle;rounded=0;orthogonalLoop=1;jettySize=auto;html=1;fontFamily=Poppins;fontSource=https%3A%2F%2Ffonts.googleapis.com%2Fcss%3Ffamily%3DPoppins;entryX=0.617;entryY=1.001;entryDx=0;entryDy=0;exitX=1;exitY=0.5;exitDx=0;exitDy=0;entryPerimeter=0;" edge="1" parent="1" source="KCjI0iNDDCobueO4zZmC-21" target="KCjI0iNDDCobueO4zZmC-5">
          <mxGeometry relative="1" as="geometry">
            <mxPoint x="589" y="219.5" as="sourcePoint" />
            <mxPoint x="820" y="340.5" as="targetPoint" />
            <Array as="points">
              <mxPoint x="774" y="295" />
            </Array>
          </mxGeometry>
        </mxCell>
        <mxCell id="KCjI0iNDDCobueO4zZmC-67" value="&lt;font style=&quot;font-size: 8px;&quot;&gt;&amp;nbsp;jadwal waktu pasien kontrol&amp;nbsp; &lt;/font&gt;" style="text;html=1;align=center;verticalAlign=middle;whiteSpace=wrap;rounded=0;fontFamily=Poppins;fontSource=https%3A%2F%2Ffonts.googleapis.com%2Fcss%3Ffamily%3DPoppins;fontSize=8;labelBackgroundColor=default;spacing=10;" vertex="1" parent="1">
          <mxGeometry x="570" y="278" width="149" height="34" as="geometry" />
        </mxCell>
        <mxCell id="KCjI0iNDDCobueO4zZmC-68" value="&lt;font style=&quot;font-size: 8px;&quot;&gt;&amp;nbsp;No Whatsapp pasien&amp;nbsp; &lt;br&gt;&lt;/font&gt;" style="text;html=1;align=center;verticalAlign=middle;whiteSpace=wrap;rounded=0;fontFamily=Poppins;fontSource=https%3A%2F%2Ffonts.googleapis.com%2Fcss%3Ffamily%3DPoppins;fontSize=8;labelBackgroundColor=default;spacing=10;" vertex="1" parent="1">
          <mxGeometry x="569" y="263" width="131" height="34" as="geometry" />
        </mxCell>
        <mxCell id="KCjI0iNDDCobueO4zZmC-70" style="edgeStyle=orthogonalEdgeStyle;rounded=0;orthogonalLoop=1;jettySize=auto;html=1;fontFamily=Poppins;fontSource=https%3A%2F%2Ffonts.googleapis.com%2Fcss%3Ffamily%3DPoppins;exitX=1.003;exitY=0.086;exitDx=0;exitDy=0;exitPerimeter=0;" edge="1" parent="1" source="KCjI0iNDDCobueO4zZmC-21">
          <mxGeometry relative="1" as="geometry">
            <mxPoint x="526" y="266" as="sourcePoint" />
            <mxPoint x="746" y="160" as="targetPoint" />
            <Array as="points">
              <mxPoint x="746" y="266" />
            </Array>
          </mxGeometry>
        </mxCell>
        <mxCell id="KCjI0iNDDCobueO4zZmC-71" value="&lt;font style=&quot;font-size: 8px;&quot;&gt;&amp;nbsp;informasi pasien&amp;nbsp; &lt;br&gt;&lt;/font&gt;" style="text;html=1;align=center;verticalAlign=middle;whiteSpace=wrap;rounded=0;fontFamily=Poppins;fontSource=https%3A%2F%2Ffonts.googleapis.com%2Fcss%3Ffamily%3DPoppins;fontSize=8;labelBackgroundColor=default;spacing=10;" vertex="1" parent="1">
          <mxGeometry x="549" y="249" width="131" height="34" as="geometry" />
        </mxCell>
      </root>
    </mxGraphModel>
  </diagram>
</mxfile>
